<?xml version="1.0" encoding="UTF-8"?>
<svg xmlns="http://www.w3.org/2000/svg" width="2006" height="585" viewBox="0 0 2006 585" role="img" aria-labelledby="title desc">
  <title id="title">Clean master reconstructed wordmark</title>
  <desc id="desc">Smoothed cubic-Bezier master reconstructed from the source alpha silhouette; no embedded raster imagery.</desc>
  <path id="outer-outline-ring" d="M 747.049 59.001 C 751.516 57.785 765.239 41.84 770.549 38.049 C 788.243 25.415 819.73 13.028 841.057 10.557 C 866.324 7.63 901.65 10.5 928 10.5 C 946.223 10.5 967.241 7.711 984.784 12.716 C 997.198 16.259 1008.998 21.464 1019.451 29.049 C 1021.465 30.512 1032.663 43.05 1033 43.05 C 1035.819 43.052 1043.143 36.764 1045.549 35.049 C 1054.475 28.684 1065.613 24.587 1075.508 20.008 C 1099.97 8.688 1146.435 -0.514 1172.943 2.557 C 1200.303 5.728 1224.575 11.783 1250.792 20.708 C 1258.382 23.293 1266.916 27.389 1273.451 32.049 C 1275.664 33.627 1280.204 38.047 1283.001 38.067 C 1290.568 38.121 1299.956 31.835 1307.216 29.716 C 1327.841 23.695 1350.61 19.133 1372.009 18.509 C 1392.255 17.918 1415.365 17.186 1434.784 22.716 C 1440.251 24.273 1464.256 32.775 1467.951 32.433 C 1473.393 31.93 1479.096 26.248 1485.057 25.557 C 1503.174 23.458 1522.749 25.5 1541 25.5 C 1549.34 25.5 1560.776 23.441 1568.784 25.716 C 1591.538 32.184 1607.162 44.55 1620.951 63.549 C 1626.321 70.949 1630.651 79.126 1635.951 86.549 C 1637.192 88.287 1638.802 92.761 1641.159 93.209 C 1643.5 93.654 1647.693 81.45 1649.049 79.549 C 1659.213 65.294 1667.871 51.432 1680.501 39.001 C 1717.91 2.181 1790.514 -2.3 1829.992 33.508 C 1853.114 54.481 1864.152 95.395 1834.451 116.951 C 1828.977 120.923 1820.863 125.291 1813.991 125.491 C 1809.542 125.621 1802.13 123.597 1800.017 128.5 C 1798.544 131.92 1804.023 150.789 1805.284 155.216 C 1810.031 171.886 1811.52 189.488 1816.284 206.216 C 1817.911 211.93 1817.502 219.082 1820.009 224.491 C 1821.867 228.499 1833.67 226.547 1837.784 227.716 C 1855.383 232.718 1873.202 235.72 1890.792 241.708 C 1961.354 265.73 2022.657 340.146 2000.284 416.784 C 1983.762 473.382 1926.851 508.788 1874.208 526.708 C 1772.152 561.449 1645.728 564.19 1543.208 529.292 C 1512.344 518.785 1480.259 506.022 1453.549 486.951 C 1445.467 481.181 1436.357 476.158 1429.008 469.492 C 1426.993 467.664 1421.703 461.616 1419 461.616 C 1416.517 461.616 1404.957 474.543 1402.5 477 C 1390.384 489.116 1374.813 499.129 1359.832 507.332 C 1317.39 530.575 1271.062 540.983 1223.943 546.443 C 1181.597 551.349 1132.126 541.598 1092.208 528.292 C 1079.342 524.004 1066.108 518.872 1054.168 512.332 C 1051.153 510.682 1042.929 504.004 1039.443 505.058 C 1019.591 511.062 1002.747 523.761 992.668 542.168 C 982.606 560.541 978.744 585.242 953.009 584.491 C 935.936 583.993 931.43 565.535 925.34 553.16 C 914.297 530.717 898.113 514.452 875.508 503.992 C 872.272 502.495 866.603 499.751 863.009 499.941 C 857.715 500.222 849.541 508.754 844.832 511.332 C 830.694 519.075 816.08 527.087 800.792 532.292 C 746.414 550.802 691.028 556.577 635.216 540.284 C 608.039 532.351 577.21 519.723 556.008 500.492 C 546.397 491.775 537.67 482.966 530.049 472.451 C 528.588 470.434 525.303 461.09 522.167 461.783 C 519.94 462.275 498.445 480.1 494.451 482.951 C 474.466 497.221 449.083 510.363 425.792 518.292 C 323.472 553.122 238.053 563.2 133.792 527.708 C 97.836 515.469 53.741 490.716 31.049 459.451 C 12.507 433.901 0.301 405.865 -0.491 373.992 C -1.76 322.9 37.088 265.806 81.168 241.668 C 100.079 231.311 119.532 222.754 140.216 216.716 C 143.193 215.846 164.834 211.489 165.16 210.776 C 166.075 208.771 156.933 201.563 155.508 199.992 C 146.102 189.622 138.655 176.278 134.716 162.784 C 124.658 128.33 140.255 96.824 160.049 69.549 C 174.778 49.256 208.376 29.263 231.792 21.292 C 295.832 -0.51 359.426 -9.656 425.784 9.716 C 444.081 15.057 463.023 21.462 479.832 30.668 C 483.739 32.807 498.751 43.384 502 43.384 C 504.814 43.384 516.676 33.579 520.168 31.668 C 534.848 23.628 550.261 18.26 566.216 13.716 C 607.774 1.881 684.931 7.009 721.451 33.049 C 726.829 36.884 734.02 41.133 737.951 46.549 C 740.512 50.079 743.599 56.442 747.049 59.001 Z M 197.993 218.943 C 194.592 222.509 185.456 220.048 181.057 220.557 C 168.825 221.975 156.128 224.245 144.216 227.716 C 110.489 237.542 75.506 253.551 51.508 280.008 C 39.898 292.808 30.31 307.729 23.008 323.508 C -10.012 394.862 34.582 464.059 97.168 498.332 C 181.599 544.569 286.86 548.827 377.784 522.284 C 415.772 511.195 455.927 496.173 488.451 472.951 C 499.126 465.329 508.305 457.195 517.5 448 C 519.318 446.182 523.359 437.928 525.999 437.951 C 527.718 437.966 531.02 449.6 532 451.5 C 538.314 463.733 546.764 476.2 557.008 485.492 C 587.601 513.241 632.32 531.723 673.057 536.443 C 721.245 542.026 759.595 533.678 804.792 518.292 C 816.751 514.22 831.161 507.288 841.451 499.951 C 846.709 496.202 854.138 489.75 860.225 487.725 C 863.586 486.606 868.547 488.771 871.784 489.716 C 896.029 496.793 917.181 513.978 929.332 536.168 C 934.301 545.24 944.115 573.177 955.009 573.491 C 970.128 573.927 976.373 547.662 982.668 536.168 C 994.482 514.593 1017.63 496.033 1042.159 491.774 C 1045.592 491.178 1055.662 498.893 1058.549 500.951 C 1068.032 507.713 1082.254 512.563 1093.208 516.292 C 1128.38 528.264 1165.904 535.483 1203 535.483 C 1255.108 535.483 1309.823 521.528 1355.832 496.332 C 1371.582 487.708 1386.81 476.69 1399.5 464 C 1403.877 459.623 1411.746 447.665 1418.008 447.509 C 1424.731 447.342 1445.793 467.128 1452.549 471.951 C 1477.665 489.884 1506.955 504.333 1536.208 514.292 C 1648.385 552.477 1769.697 549.668 1881.208 511.708 C 1935.747 493.143 1986.542 449.497 1993.443 389.943 C 1994.83 377.964 1992.025 365.12 1988.716 353.784 C 1973.284 300.923 1926.18 265.861 1875.792 248.708 C 1861.867 243.968 1846.45 240.238 1831.943 238.557 C 1822.691 237.486 1813.498 239.389 1809.009 229.491 C 1807.151 225.395 1807.534 219.605 1806.284 215.216 C 1800.476 194.825 1798.065 173.516 1792.284 153.216 C 1789.751 144.321 1786.025 132.231 1788.716 123.216 C 1791.977 112.295 1801.921 115.132 1809.951 114.434 C 1816.448 113.869 1823.183 110.773 1828.451 106.951 C 1834.642 102.457 1837.685 95.184 1839.716 88.216 C 1847.586 61.202 1821.959 39.942 1800.492 30.008 C 1756.753 9.767 1701.156 25.823 1673.049 64.549 C 1663.978 77.049 1656.095 90.605 1648.668 104.168 C 1647.608 106.102 1643.108 117.033 1640.999 117.049 C 1638.764 117.067 1636.223 110.794 1635.332 109.168 C 1631.216 101.65 1626.93 93.531 1621.951 86.549 C 1605.81 63.911 1591.331 40.078 1560.943 36.557 C 1545.43 34.76 1506.57 34.76 1491.057 36.557 C 1484.408 37.328 1471.071 46.374 1468.999 46.384 C 1468.445 46.387 1436.796 35.859 1432.784 34.716 C 1411.57 28.675 1381.005 29.014 1359.057 31.557 C 1342.541 33.471 1325.133 36.399 1309.208 41.708 C 1303.181 43.717 1286.342 51.897 1281.049 51.434 C 1275.86 50.98 1255.913 35.473 1247.792 32.708 C 1238.718 29.619 1230.02 25.412 1220.784 22.716 C 1204.982 18.103 1189.244 17.318 1173.057 15.443 C 1166.282 14.658 1159.017 13.751 1152.057 14.557 C 1127.07 17.452 1100.783 21.237 1077.508 32.008 C 1068.905 35.989 1059.304 39.519 1051.549 45.049 C 1047.395 48.01 1040.185 54.34 1034.991 54.491 C 1022.428 54.858 1020.433 44.569 1011.451 38.049 C 1001.612 30.909 990.332 27.005 978.784 23.716 C 963.848 19.463 944.532 22.5 929 22.5 C 908.667 22.5 888.333 22.5 868 22.5 C 858.548 22.5 848.442 21.47 839.057 22.557 C 813.662 25.5 789.83 38.331 769.549 53.049 C 763.555 57.4 757.35 64.623 753.049 70.549 C 751.924 72.1 749.076 77.961 746.992 78.058 C 743.96 78.199 740.869 73.026 739.668 70.832 C 734.916 62.156 729.373 55.203 721.992 48.508 C 705.693 33.724 676.181 25.019 654.943 22.557 C 614.029 17.816 581.289 20.404 542.208 33.708 C 532.681 36.952 523.552 43.241 515.549 49.049 C 512.452 51.297 507.395 58.43 503.833 59.217 C 503.249 59.346 480.729 45.673 478.451 44.049 C 461.785 32.165 434.256 25.262 414.784 19.716 C 350.067 1.285 253.427 12.984 197.451 52.951 C 167.112 74.613 139.925 107.961 144.557 147.943 C 146.866 167.869 158.236 187.093 173.008 200.492 C 176.812 203.942 197.237 216.04 197.993 218.943 Z" fill="#FFFFFF" fill-rule="evenodd" clip-rule="evenodd"/>
  <path id="left-primary-body" d="M 254.584 169.246 C 263.333 177.995 239.947 194.05 232.86 195.36 C 199.325 201.558 172.892 170.016 171.596 138.954 C 169.344 84.991 240.903 51.543 284.307 41.807 C 410.725 13.447 559.008 80.276 569.571 221.929 C 571.128 242.812 567.556 263.97 560.234 283.734 C 524.07 381.351 386.973 428.658 291.929 421.571 C 251.967 418.591 198.427 403.91 178.668 364.832 C 164.464 336.742 182.52 291.428 218.907 293.735 C 227.218 294.261 249.977 306.134 240.155 317.325 C 238.002 319.779 226.831 313.556 226.831 326 C 226.831 338.899 244.409 341.43 251.448 332.948 C 260.837 321.636 264.762 301.757 269.505 288.005 C 280.63 255.758 296.659 221.822 301.336 187.836 C 302.544 179.062 302.524 169.86 298.947 161.553 C 297.894 159.107 291.285 153.167 292.508 150.852 C 299.037 138.485 345.159 138.048 356.837 139.663 C 367.974 141.204 391.74 144.49 396.947 156.553 C 399.49 162.446 388.439 189.48 386.018 197.518 C 374.352 236.25 360.712 274.649 350.206 313.706 C 347.089 325.293 335.944 343.002 340.527 354.973 C 345.999 369.268 375.066 357.929 384.546 354.046 C 421.75 338.806 454.898 312.432 469.234 273.734 C 507.343 170.865 393.331 97.859 302.311 116.811 C 281.999 121.04 259.204 127.71 243.519 142.019 C 236.362 148.549 229.536 162.386 240.853 168.647 C 246.046 171.519 249.997 167.886 254.584 169.246 Z" fill="#FFFFFF"/>
  <path id="central-interlock-body" d="M 1030.19 344.471 C 1036.497 344.27 1043.266 359.538 1061.147 349.647 C 1076.296 341.267 1078.898 315.522 1082.789 300.289 C 1091.869 264.734 1102.158 229.513 1110.193 193.693 C 1111.925 185.973 1112.565 178.944 1111.342 171.158 C 1110.845 167.996 1106.658 162.669 1108.221 159.671 C 1111.964 152.492 1130.07 147.528 1137.312 145.812 C 1154.074 141.842 1193.614 140.378 1199.973 162.527 C 1203.192 173.736 1195.609 191.246 1192.789 202.289 C 1184.656 234.134 1175.958 265.925 1168.407 297.907 C 1164.623 313.934 1144.569 358.439 1173.975 357.475 C 1194.641 356.797 1215.884 342.371 1230.519 329.019 C 1292.042 272.894 1271.808 155.528 1191.734 125.766 C 1121.593 99.697 1074.422 156.706 1039.299 208.799 C 971.552 309.277 907.703 459.79 787.734 504.234 C 726.795 526.81 654.386 524.543 597.786 490.714 C 574.395 476.732 549.622 455.633 545.664 426.836 C 542.719 405.41 550.912 382.732 560.334 363.834 C 561.809 360.874 566.628 346.855 570.093 346.413 C 571.776 346.198 573.67 352.759 574.5 354 C 579.775 361.88 583.405 370.543 589.552 377.948 C 606.643 398.539 628.553 414.714 654.005 423.495 C 745.104 454.922 818.092 388.299 868.112 320.612 C 880.629 303.675 896.417 286.601 906.401 268.046 C 908.013 265.05 903.328 260.042 902.006 257.494 C 896.779 247.429 891.079 237.657 886 227.5 C 864.98 185.465 848.417 140.889 825.65 99.85 C 820.604 90.754 812.655 82.67 803.148 78.352 C 799.454 76.674 792.6 76.715 789.681 74.161 C 788.439 73.074 791.081 69.251 791.72 68.22 C 798.355 57.509 815.039 52.472 826.248 48.748 C 855.22 39.124 912.677 44.5 945 44.5 C 961.817 44.5 984.42 43.102 995.888 58.612 C 996.929 60.021 1001.91 66.361 999.465 67.874 C 996.631 69.625 986.348 67.956 982.312 68.812 C 967.26 72.004 954.683 79.851 946.714 93.214 C 933.493 115.382 939.645 141.83 949.649 163.851 C 951.244 167.363 957.055 183.308 961.167 183.847 C 962.505 184.022 974.109 164.543 976.093 161.593 C 991.962 137.999 1008.529 116.171 1027.812 95.312 C 1091.711 26.194 1204.914 18.76 1276.948 78.552 C 1348.567 137.998 1365.647 259.492 1310.889 334.389 C 1276.085 381.993 1218.125 410.091 1159.929 414.429 C 1123.068 417.177 1076.97 406.397 1050 379.5 C 1045.363 374.876 1022.724 351.937 1030.19 344.471 Z" fill="#FFFFFF"/>
  <path id="left-inner-body" d="M 784.443 355.105 C 785.865 356.527 782.461 363.572 781.666 365.166 C 776.89 374.753 768.996 382.596 760.389 388.889 C 735.993 406.725 698.956 412.226 672.214 396.286 C 642.108 378.341 633.783 346.231 625.206 314.294 C 613.119 269.29 601.413 224.141 587.982 179.518 C 579.909 152.694 573.851 121.567 556.888 98.612 C 552.565 92.763 547.138 87.376 540.781 83.719 C 537.974 82.105 530.706 81.293 529.081 78.469 C 526.536 74.048 535.142 65.966 538.052 63.552 C 569.244 37.674 632.687 38.727 668.752 50.748 C 679.617 54.37 703.852 61.185 707.159 74.337 C 708.75 80.664 700.548 80.319 696.248 81.748 C 686.202 85.088 677.6 92.426 674.259 102.759 C 665.812 128.882 678.315 156.729 684.406 182.094 C 690.148 206.009 696.299 230.321 703.743 253.757 C 704.739 256.892 709.327 275.643 711.006 275.675 C 712.486 275.703 722.758 253.495 724.714 250.214 C 736.185 230.969 745.972 210.555 756 190.5 C 760.429 181.641 766.274 168.405 764.186 158.314 C 761.17 143.737 749.772 133.174 734.507 141.007 C 731.597 142.5 726.227 150.346 723.914 150.581 C 722.308 150.743 721.64 145.011 721.596 143.954 C 719.767 100.289 783.552 84.443 811.448 118.052 C 821.387 130.025 827.322 144.539 829.657 159.843 C 837.478 211.103 807.009 245.032 778.889 283.389 C 766.445 300.364 730.511 335.726 747.118 357.382 C 760.173 374.406 775.453 354.601 784.443 355.105 Z" fill="#FFFFFF"/>
  <path id="right-primary-body" d="M 1590.6 403.738 C 1589.324 405.014 1582.352 401.288 1580.753 400.747 C 1570.696 397.345 1559.804 391.41 1551 385.5 C 1517.688 363.141 1472.784 326.696 1457.457 288.203 C 1456.306 285.313 1470.567 280.97 1473.166 279.666 C 1482.904 274.784 1490.437 267.144 1497.999 259.499 C 1518.191 239.083 1528.544 204.456 1532.336 176.836 C 1536.065 149.679 1531.513 119.082 1517.286 95.214 C 1511.815 86.034 1505.414 76.257 1497.481 69.019 C 1495.983 67.653 1488.711 63.619 1490.676 61.02 C 1494.07 56.529 1520.606 58.5 1527 58.5 C 1541.246 58.5 1556.173 56.726 1569.734 61.766 C 1594.794 71.082 1607.464 106.862 1620.902 127.598 C 1627.501 137.783 1633.52 148.515 1639.351 159.149 C 1640.226 160.743 1644.08 168.965 1646.354 167.659 C 1652.02 164.407 1661.662 139.011 1665.714 132.214 C 1691.405 89.111 1705.59 45.303 1765.023 47.477 C 1774.063 47.807 1784.969 51.054 1792.786 55.714 C 1798.165 58.92 1818.092 74.832 1812.918 82.421 C 1811.194 84.949 1805.959 82.528 1803.475 83.025 C 1794.431 84.834 1787.022 86.415 1779.201 91.701 C 1753.539 109.051 1767.413 146.651 1772.807 170.693 C 1779.585 200.907 1786.416 231.094 1793.193 261.307 C 1797.176 279.062 1800.154 298.575 1807.046 315.454 C 1811.084 325.342 1817.758 334.934 1827.506 339.994 C 1831.786 342.217 1845.365 342.641 1845.441 347.009 C 1845.671 360.195 1834.027 371.473 1825.5 380 C 1799.416 406.084 1753.617 418.769 1717.929 421.429 C 1710.692 421.969 1703.256 421.501 1696 421.5 C 1694.904 421.5 1690.031 422.13 1689.491 420.829 C 1689.127 419.953 1692.048 418.46 1692.593 418.093 C 1696.584 415.4 1700.1 412.4 1703.5 409 C 1712.517 399.983 1718.86 390.163 1722.206 377.706 C 1729.66 349.95 1715.709 306.017 1709.811 277.689 C 1707.142 264.873 1704.632 251.786 1702.657 238.843 C 1702.34 236.771 1702.119 227.191 1699.836 226.448 C 1698.259 225.934 1696.51 230.462 1695.902 231.402 C 1692.537 236.594 1688.855 242.02 1686.005 247.505 C 1678.65 261.664 1658.381 302.107 1642.564 304.922 C 1635.285 306.217 1627.57 299.024 1623.907 293.593 C 1613.793 278.596 1605.413 262.328 1597.333 246.167 C 1596.224 243.947 1587.651 226.52 1586.908 226.425 C 1585.106 226.195 1584.084 235 1583.811 236.311 C 1581.58 247.026 1580.42 257.974 1578.189 268.689 C 1572.425 296.372 1560.947 330.512 1566.814 358.686 C 1569.165 369.979 1573.686 379.881 1580.093 389.407 C 1582.279 392.657 1590.252 400.216 1590.6 403.738 Z" fill="#FFFFFF"/>
  <path id="right-interlock-and-sweep" d="M 1817.582 261.076 C 1822.2 256.241 1840.61 260.945 1846.305 262.195 C 1873.993 268.271 1904.99 278.626 1926.482 298.018 C 1939.102 309.405 1951.354 320.726 1959.649 335.851 C 1993.125 396.898 1957.729 447.73 1904.786 479.286 C 1864.058 503.562 1815.291 512.324 1769.164 518.664 C 1639.941 536.425 1482.999 505.257 1401.889 394.611 C 1385.43 372.157 1370.648 347.325 1359.953 321.547 C 1357.029 314.499 1350.742 306.381 1349.678 298.836 C 1348.784 292.499 1354.127 282.646 1355.982 276.482 C 1359.279 265.527 1360.584 253.261 1361.429 241.929 C 1362.154 232.204 1360.843 222.586 1360.525 212.975 C 1360.479 211.578 1359.364 204.796 1360.581 204.081 C 1362.329 203.054 1384.156 205.983 1388.836 205.336 C 1413.777 201.887 1433.894 179.897 1430.336 154.164 C 1425.832 121.591 1384.567 119.066 1359.165 122.665 C 1354.483 123.329 1343.28 131.762 1342.019 131.7 C 1340.991 131.649 1340.404 130.248 1340.006 129.491 C 1335.067 120.109 1330.01 110.287 1323.884 101.616 C 1318.005 93.298 1311.7 85.2 1304.5 78 C 1302.884 76.384 1297.189 72.237 1298.369 69.526 C 1299.789 66.261 1309.311 64.077 1312.5 63 C 1327.328 57.993 1343.358 54.604 1358.929 53.429 C 1415.745 49.142 1485.25 57.067 1506.252 120.248 C 1521.588 166.387 1503.459 221.325 1464.389 249.889 C 1454.144 257.379 1442.689 261.891 1430.495 264.995 C 1428.077 265.61 1418.405 265.739 1417.393 268.218 C 1416.705 269.906 1434.503 298.02 1436.907 301.593 C 1460.127 336.117 1488.437 369.859 1523.201 393.299 C 1601.977 446.413 1701.336 462.082 1791.266 428.766 C 1827.869 415.206 1872.492 388.36 1878.336 345.836 C 1882.117 318.326 1861.556 293.825 1841.948 277.552 C 1838.963 275.074 1817.901 262.3 1817.582 261.076 Z" fill="#FFFFFF"/>
  <path id="left-lower-sweep" d="M 538.646 356.307 C 539.725 357.387 537.183 362.945 536.748 364.248 C 533.978 372.558 531.518 380.939 528.748 389.248 C 514.579 431.754 484.533 452.383 447.786 474.286 C 430.772 484.428 410.734 491.315 392 497.5 C 307.235 525.485 213.677 527.572 130.453 493.047 C 86.424 474.782 37.423 437.597 33.571 385.929 C 28.437 317.067 80.652 269.947 141.248 249.748 C 157.027 244.489 173.403 241.5 190 241.5 C 194.678 241.5 203.582 240.551 207.295 244.19 C 211.124 247.944 201.915 250.414 199.851 251.351 C 188.381 256.565 176.849 263.508 167.519 272.019 C 144.106 293.379 127.444 327.692 137.018 359.482 C 148.116 396.331 183.592 418.118 217.734 430.766 C 293.771 458.935 386.35 448.212 458.828 413.328 C 478.225 403.992 497.345 393.229 513.948 379.448 C 518.843 375.386 534.328 357.49 538.646 356.307 Z" fill="#FFFFFF"/>
  <path id="center-lower-sweep" d="M 990.688 341.299 C 993.605 343.53 1000.975 361.206 1003.714 365.786 C 1011.25 378.389 1022.858 389.158 1034.052 398.448 C 1095.649 449.573 1192.28 453.859 1263.149 421.649 C 1285.945 411.287 1305.376 397.124 1323 379.5 C 1325.666 376.834 1344.138 354.116 1344.221 354.099 C 1350.679 352.752 1357.998 367.66 1360.696 371.804 C 1370.483 386.838 1396.702 419.594 1392.162 437.662 C 1385.497 464.193 1327.396 490.262 1303.753 498.253 C 1212.946 528.946 1098.262 521.254 1024.519 453.981 C 1002.409 433.811 983.501 404.82 983.5 374 C 983.5 369.76 986.18 341.012 990.688 341.299 Z" fill="#FFFFFF"/>
  <path id="four-point-symbol" d="M 956 548.46 C 954.787 547.246 953.113 540.919 952.48 539.02 C 950.858 534.155 947.195 529.899 945.48 525.02 C 944.442 522.067 940.543 519.888 939.52 516.98 C 936.448 508.241 926.896 500.396 920 493.5 C 914.903 488.403 900.453 478.796 893.98 476.52 C 892.397 475.964 888.648 475.059 887.5 474 C 887.082 473.615 885.54 473.587 885.54 473 C 885.54 472.758 887.578 471.922 888 471.5 C 890.312 469.188 894.965 466.539 897.98 465.48 C 900.238 464.686 901.731 461.325 904.02 460.52 C 907.93 459.146 923.074 446.133 924.52 442.02 C 925.377 439.581 929.623 438.419 930.48 435.98 C 931.689 432.54 936.287 430.374 937.48 426.98 C 939.73 420.578 945.243 415.498 947.52 409.02 C 947.812 408.191 949.188 407.809 949.48 406.98 C 950.712 403.474 953.26 400.45 954.48 396.98 C 954.659 396.469 955.755 392.54 956 392.54 C 956.999 392.54 957.322 396.386 957.52 396.98 C 958.981 401.364 961.042 405.544 962.52 409.98 C 965.106 417.736 974.023 426.875 976.52 433.98 C 977.604 437.061 982.405 438.962 983.48 442.02 C 984.467 444.827 996.349 457.595 998.98 458.52 C 1001.716 459.482 1003.164 463.53 1005.98 464.52 C 1007.616 465.095 1008.384 467.905 1010.02 468.48 C 1012.955 469.512 1017.222 472.812 1019.5 475 C 1020.101 475.578 1021.199 475.199 1021.48 476.02 C 1021.961 477.424 1013.533 479.988 1012.02 480.52 C 1011.191 480.812 1010.809 482.188 1009.98 482.48 C 1002.834 484.992 995.096 490.404 989.5 496 C 980.357 505.143 970.543 515.421 966.48 526.98 C 966.188 527.809 964.812 528.191 964.52 529.02 C 963.499 531.926 957.495 546.964 956 548.46 Z" fill="#FFFFFF"/>
</svg>
